<?xml version="1.0" standalone="no"?>
<!DOCTYPE svg PUBLIC "-//W3C//DTD SVG 20010904//EN"
 "http://www.w3.org/TR/2001/REC-SVG-20010904/DTD/svg10.dtd">
<svg version="1.0" xmlns="http://www.w3.org/2000/svg"
 width="860.000000pt" height="882.000000pt" viewBox="0 0 860.000000 882.000000"
 preserveAspectRatio="xMidYMid meet">

<g transform="translate(0.000000,882.000000) scale(0.100000,-0.100000)"
fill="#000000" stroke="none">
<path d="M4035 8414 c-489 -50 -849 -186 -1215 -458 -117 -86 -319 -282 -410
-396 -426 -534 -595 -1211 -470 -1881 100 -531 391 -1018 820 -1369 173 -142
458 -301 670 -375 284 -98 449 -124 875 -135 340 -9 522 -26 745 -70 641 -128
1214 -394 1715 -794 122 -99 350 -319 455 -441 370 -432 611 -955 665 -1447
l6 -58 -3590 0 c-3434 0 -3591 1 -3591 18 0 39 22 192 41 287 167 824 744
1559 1579 2015 152 83 185 108 211 165 38 82 12 179 -64 239 -31 25 -49 31
-103 34 -62 4 -69 2 -167 -48 -539 -279 -1029 -702 -1350 -1170 -260 -380
-424 -767 -506 -1195 -32 -171 -42 -272 -48 -518 l-6 -227 4003 0 4003 0 -6
228 c-7 245 -14 321 -52 508 -166 826 -729 1612 -1540 2149 -390 259 -813 452
-1253 572 l-143 39 85 52 c227 139 485 374 642 584 492 660 599 1509 288 2273
-261 639 -819 1138 -1490 1334 -94 28 -238 57 -344 71 -91 12 -389 21 -455 14z
m306 -405 c73 -6 187 -21 252 -35 701 -148 1268 -692 1446 -1389 45 -177 55
-262 55 -475 0 -212 -10 -299 -54 -473 -86 -333 -255 -630 -501 -876 -747
-746 -1946 -741 -2691 12 -559 566 -706 1433 -364 2152 293 615 889 1030 1556
1084 152 12 153 12 301 0z"/>
</g>
</svg>
