<?xml version="1.0" standalone="no"?>
<!DOCTYPE svg PUBLIC "-//W3C//DTD SVG 20010904//EN"
 "http://www.w3.org/TR/2001/REC-SVG-20010904/DTD/svg10.dtd">
<svg version="1.0" xmlns="http://www.w3.org/2000/svg"
 width="512.000000pt" height="512.000000pt" viewBox="0 0 512.000000 512.000000"
 preserveAspectRatio="xMidYMid meet">

<g transform="translate(0.000000,512.000000) scale(0.100000,-0.100000)"
fill="#000000" stroke="none">
<path d="M2273 4274 c-88 -377 -144 -723 -185 -1130 -19 -187 -22 -281 -22
-649 -1 -453 7 -577 55 -860 29 -176 103 -464 115 -452 3 3 -4 36 -15 74 -49
166 -91 433 -112 723 -15 204 -6 837 15 1070 28 308 90 749 172 1234 14 82 23
153 21 159 -1 5 -22 -71 -44 -169z"/>
<path d="M1967 4007 c-66 -419 -89 -712 -90 -1147 0 -496 38 -878 124 -1225
24 -96 99 -328 105 -322 2 2 -5 30 -16 63 -58 165 -115 453 -144 719 -55 509
-48 987 30 1809 13 148 23 270 21 272 -2 2 -15 -74 -30 -169z"/>
<path d="M2400 3366 c64 -23 150 -63 150 -70 0 -2 -33 9 -74 25 -82 32 -156
51 -156 40 0 -4 26 -15 58 -25 70 -22 154 -57 149 -63 -2 -2 -16 1 -31 6 -17
7 -26 7 -26 1 0 -6 5 -10 12 -10 6 0 43 -19 81 -41 99 -59 178 -143 227 -242
81 -165 89 -304 35 -624 -26 -152 -35 -233 -34 -302 l2 -93 -59 -32 c-164 -88
-253 -271 -241 -494 7 -118 41 -198 121 -277 73 -73 94 -71 24 3 -55 57 -93
113 -67 97 9 -6 10 -3 5 11 -35 85 -38 108 -34 227 4 118 6 125 44 207 41 87
80 130 163 186 22 14 46 24 52 22 7 -2 -4 -14 -24 -27 -55 -34 -133 -124 -166
-194 -39 -81 -55 -172 -46 -267 9 -90 19 -72 28 46 3 44 12 94 19 110 l12 29
4 -32 c3 -35 22 -46 22 -14 0 41 45 135 88 182 42 47 105 89 134 89 7 0 27 22
44 49 32 47 32 48 18 102 -20 76 -17 242 7 431 32 252 12 434 -66 588 -80 159
-247 291 -455 359 -85 28 -102 25 -20 -3z m487 -783 c-2 -16 -4 -3 -4 27 0 30
2 43 4 28 2 -16 2 -40 0 -55z m-10 -95 c-2 -13 -4 -5 -4 17 -1 22 1 32 4 23 2
-10 2 -28 0 -40z m-10 -95 c-3 -10 -5 -4 -5 12 0 17 2 24 5 18 2 -7 2 -21 0
-30z m-10 -85 c-2 -13 -4 -5 -4 17 -1 22 1 32 4 23 2 -10 2 -28 0 -40z m-10
-235 c-2 -21 -4 -4 -4 37 0 41 2 58 4 38 2 -21 2 -55 0 -75z m-157 -176 c0 -2
-15 -16 -32 -33 l-33 -29 29 33 c28 30 36 37 36 29z m-141 -227 c-11 -36 -24
-110 -29 -165 l-9 -100 4 105 c2 76 9 122 25 168 29 82 35 75 9 -8z"/>
<path d="M1707 2429 c-9 -5 -22 -7 -27 -4 -6 4 -9 1 -8 -6 2 -6 -3 -14 -11
-17 -10 -3 -11 0 -5 9 7 12 5 12 -9 0 -9 -7 -14 -18 -10 -24 4 -6 0 -8 -10 -4
-22 8 -113 -93 -146 -163 -24 -50 -26 -66 -25 -175 1 -111 3 -127 37 -220 45
-127 67 -212 67 -262 0 -48 25 -74 88 -92 50 -14 103 -58 125 -103 11 -21 17
-27 17 -15 0 33 20 7 37 -51 9 -31 19 -49 21 -40 2 10 -4 42 -12 71 -20 69
-84 142 -151 173 -39 19 -44 24 -25 24 39 0 101 -40 139 -90 18 -25 38 -44 43
-42 5 1 7 -2 3 -7 -3 -6 2 -36 11 -67 15 -53 15 -82 1 -177 -2 -15 -13 -37
-23 -50 -17 -20 -17 -20 -1 -7 36 27 60 91 60 155 -1 67 -34 172 -52 167 -7
-1 -10 2 -6 8 13 21 -46 80 -109 110 -35 17 -68 30 -73 30 -6 0 -13 20 -16 44
-4 25 -35 113 -69 198 l-63 153 0 105 c0 126 17 171 94 253 28 30 48 56 45 59
-2 3 16 18 41 32 25 15 45 29 45 31 0 7 -2 6 -23 -6z m-110 -791 c-3 -8 -6 -5
-6 6 -1 11 2 17 5 13 3 -3 4 -12 1 -19z m272 -298 c0 -10 -3 -8 -9 5 -12 27
-12 43 0 25 5 -8 9 -22 9 -30z m8 -42 c-3 -8 -6 -5 -6 6 -1 11 2 17 5 13 3 -3
4 -12 1 -19z"/>
<path d="M2580 1255 c0 -11 91 -102 125 -125 11 -7 2 3 -19 22 -22 19 -54 52
-73 74 -18 21 -33 34 -33 29z"/>
<path d="M2931 1129 c-20 -16 -33 -19 -65 -14 -23 3 -54 8 -71 11 -17 2 -6 -5
25 -16 30 -11 63 -18 73 -16 13 3 17 -1 15 -12 -4 -21 -53 -27 -115 -14 -29 7
-42 7 -35 0 5 -5 37 -12 71 -15 33 -3 61 -8 61 -10 0 -2 -9 -32 -21 -66 -11
-34 -24 -80 -28 -102 l-7 -40 -214 -3 c-398 -6 -855 20 -1375 79 -244 27 -898
110 -985 125 -19 3 -32 3 -29 0 11 -11 327 -76 564 -116 613 -103 1190 -147
1795 -137 618 11 1079 70 1505 193 97 28 349 124 343 130 -2 2 -39 -10 -81
-27 -193 -74 -516 -149 -822 -188 -189 -25 -506 -51 -611 -51 -87 0 -85 -5
-45 120 23 74 30 85 51 88 58 6 66 11 65 38 -2 26 -22 47 -37 38 -4 -3 -5 2
-2 10 8 20 4 20 -25 -5z m47 -46 c-2 -11 -14 -19 -31 -21 -29 -4 -35 6 -15 26
19 19 50 15 46 -5z"/>
<path d="M1653 1044 c-14 -14 -7 -44 9 -44 6 0 6 6 -1 14 -23 28 8 27 35 -1
l27 -28 -16 27 c-15 25 -15 27 1 32 13 4 12 4 -3 3 -11 -1 -24 1 -30 5 -5 3
-16 0 -22 -8z"/>
<path d="M4730 1035 c-14 -8 -20 -14 -14 -15 5 0 19 7 30 15 24 18 16 19 -16
0z"/>
<path d="M4655 1004 c-68 -31 -340 -114 -485 -148 -436 -101 -955 -160 -1489
-171 -135 -3 -318 -7 -406 -10 -88 -3 -205 -6 -260 -7 l-100 -1 105 -7 c164
-12 778 -11 955 0 580 37 1067 121 1460 251 135 45 286 107 260 107 -5 0 -23
-6 -40 -14z"/>
<path d="M1737 945 c9 -19 18 -33 21 -31 4 5 -26 66 -33 66 -3 0 3 -16 12 -35z"/>
</g>
</svg>
